{"title":"24 heures de la vie d'une femme(2002) Michel Serrault","uid":10762971,"size":737085195,"categoryP":"video","categoryS":"movies","magnet":"?xt=urn:btih:7e8aa324b167d2a36e0d823dfcbd589bbfba74b8&amp;dn=24+heures+de+la+vie+d%27une+femme%282002%29+Michel+Serrault&amp;tr=udp%3A%2F%2Ftracker.openbittorrent.com%3A80&amp;tr=udp%3A%2F%2Fopen.demonii.com%3A1337&amp;tr=udp%3A%2F%2Ftracker.coppersurfer.tk%3A6969&amp;tr=udp%3A%2F%2Fexodus.desync.com%3A6969","seeders":0,"leechers":1,"uploader":"app1985","files":-1,"time":1407992276,"description":"another download link : &lt;a href=&quot; http://t.cn/RPlVT0o&quot; rel=&quot;nofollow&quot; target=&quot;_NEW&quot;&gt; http://t.cn/RPlVT0o&lt;/a&gt; \n\n\nFrom: &lt;a href=&quot; http://t.cn/RPlV8vv&quot; rel=&quot;nofollow&quot; target=&quot;_NEW&quot;&gt; http://t.cn/RPlV8vv&lt;/a&gt;\n\n\n\n\n\n24 heures de la vie d'une femme/24 Hours in the Life of a Woman(2002)\n\n &lt;a href=&quot;\nhttp://www.imdb.com/title/tt0229187/&quot; rel=&quot;nofollow&quot; target=&quot;_NEW&quot;&gt;\nhttp://www.imdb.com/title/tt0229187/&lt;/a&gt;\n\n\n\nscreens:\n &lt;a href=&quot;\nhttp://bayimg.com/fApbBaafN&quot; rel=&quot;nofollow&quot; target=&quot;_NEW&quot;&gt;\nhttp://bayimg.com/fApbBaafN&lt;/a&gt;\n &lt;a href=&quot;\nhttp://bayimg.com/FaPbaAafN&quot; rel=&quot;nofollow&quot; target=&quot;_NEW&quot;&gt;\nhttp://bayimg.com/FaPbaAafN&lt;/a&gt;\n\n\n\nGeneral\nComplete name                  : 24heuresdanslaviedunefemme.www.libertyland.tv.avi\nFormat                         : AVI\nFormat/Info                    : Audio Video Interleave\nFile size                      : 705 MiB\nDuration                       : 1h 42mn\nOverall bit rate               : 961 Kbps\nMovie name                     : 24 heures dans la vie d'une femme\nWriting application            : Lavf52.78.4\nOriginal source form/Name      : 24_HEURES____FEMME\n\nVideo\nID                             : 0\nFormat                         : AVC\nFormat/Info                    : Advanced Video Codec\nFormat profile                 : &lt;a class=&quot;__cf_email__&quot; href=&quot;/cdn-cgi/l/email-protection&quot; data-cfemail=&quot;6d200c04032d215e435c&quot;&gt;[email&amp;#160;protected]&lt;/a&gt;&lt;script cf-hash='f9e31' type=&quot;text/javascript&quot;&gt;\n/* &lt;![CDATA[ */!function(){try{var t=&quot;currentScript&quot;in document?document.currentScript:function(){for(var t=document.getElementsByTagName(&quot;script&quot;),e=t.length;e--;)if(t[e].getAttribute(&quot;cf-hash&quot;))return t[e]}();if(t&amp;&amp;t.previousSibling){var e,r,n,i,c=t.previousSibling,a=c.getAttribute(&quot;data-cfemail&quot;);if(a){for(e=&quot;&quot;,r=parseInt(a.substr(0,2),16),n=2;a.length-n;n+=2)i=parseInt(a.substr(n,2),16)^r,e+=String.fromCharCode(i);e=document.createTextNode(e),c.parentNode.replaceChild(e,c)}}}catch(u){}}();/* ]]&gt; */&lt;/script&gt;\nFormat settings, CABAC         : Yes\nFormat settings, ReFrames      : 2 frames\nCodec ID                       : H264\nDuration                       : 1h 42mn\nBit rate                       : 726 Kbps\nWidth                          : 1 024 pixels\nHeight                         : 548 pixels\nDisplay aspect ratio           : 1.85:1\nFrame rate                     : 25.000 fps\nColor space                    : YUV\nChroma subsampling             : 4:2:0\nBit depth                      : 8 bits\nScan type                      : Progressive\nBits/(Pixel*Frame)             : 0.052\nStream size                    : 532 MiB (76%)\nWriting library                : x264 core\nColor primaries                : BT.601 NTSC\nTransfer characteristics       : BT.709\nMatrix coefficients            : BT.601\n\nAudio\nID                             : 1\nFormat                         : AC-3\nFormat/Info                    : Audio Coding 3\nMode extension                 : CM (complete main)\nFormat settings, Endianness    : Big\nCodec ID                       : 2000\nDuration                       : 1h 42mn\nBit rate mode                  : Constant\nBit rate                       : 224 Kbps\nChannel(s)                     : 2 channels\nChannel positions              : Front: L R\nSampling rate                  : 48.0 KHz\nBit depth                      : 16 bits\nCompression mode               : Lossy\nStream size                    : 164 MiB (23%)\nAlignment                      : Aligned on interleaves\nInterleave, duration           : 32 ms (0.80 video frame)\nInterleave, preload duration   : 32 ms\n\n","torrent":{"xt":"urn:btih:7e8aa324b167d2a36e0d823dfcbd589bbfba74b8","amp;dn":"24+heures+de+la+vie+d%27une+femme%282002%29+Michel+Serrault","amp;tr":["udp%3A%2F%2Ftracker.openbittorrent.com%3A80","udp%3A%2F%2Fopen.demonii.com%3A1337","udp%3A%2F%2Ftracker.coppersurfer.tk%3A6969","udp%3A%2F%2Fexodus.desync.com%3A6969"],"infoHash":"7e8aa324b167d2a36e0d823dfcbd589bbfba74b8","infoHashBuffer":{"type":"Buffer","data":[126,138,163,36,177,103,210,163,110,13,130,61,252,189,88,155,191,186,116,184]},"announce":[],"urlList":[]}}